# This file uses centimeters as units for non-parametric coordinates.

mtllib toallero.mtl
g default
v -0.177851 0.028842 0.055452
v 0.178957 0.028842 0.055452
v 0.178957 0.083623 0.055452
v -0.177851 0.083623 0.055452
v 0.178957 0.028842 0.017176
v -0.177851 0.028842 0.017176
v -0.177851 0.083623 0.017176
v 0.178957 0.083623 0.017176
v -0.177851 0.028842 0.067499
v 0.178957 0.028842 0.067499
v 0.178957 0.100128 0.067499
v -0.177851 0.100128 0.067499
v 0.178957 0.028842 0.005128
v -0.177851 0.028842 0.005128
v -0.177851 0.100128 0.005128
v 0.178957 0.100128 0.005128
v -0.177851 -0.370405 0.055452
v 0.178957 -0.370405 0.055452
v 0.178957 -0.370405 0.017176
v -0.177851 -0.370405 0.017176
v -0.177851 -0.370405 0.067499
v 0.178957 -0.370405 0.067499
v 0.178957 -0.370405 0.005128
v -0.177851 -0.370405 0.005128
v -0.416220 0.045347 0.023055
v -0.416220 0.083623 0.023055
v -0.416220 0.045347 0.061331
v -0.416220 0.083623 0.061331
v 0.414746 0.045347 0.023054
v 0.414746 0.083623 0.023054
v 0.414746 0.083623 0.061330
v 0.414746 0.045347 0.061330
vn -1.000000 -0.000000 -0.000000
vn -1.000000 -0.000000 -0.000000
vn -1.000000 -0.000000 -0.000000
vn -1.000000 -0.000000 -0.000000
vn -1.000000 -0.000000 -0.000000
vn -1.000000 -0.000000 -0.000000
vn -1.000000 -0.000000 -0.000000
vn -1.000000 -0.000000 -0.000000
vn -1.000000 -0.000000 -0.000000
vn -1.000000 -0.000000 -0.000000
vn -1.000000 -0.000000 -0.000000
vn -1.000000 -0.000000 -0.000000
vn -1.000000 -0.000000 -0.000000
vn -1.000000 -0.000000 -0.000000
vn -1.000000 -0.000000 -0.000000
vn -1.000000 -0.000000 -0.000000
vn 0.000000 1.000000 0.000000
vn 0.000000 1.000000 0.000000
vn 0.000000 1.000000 0.000000
vn 0.000000 1.000000 0.000000
vn 0.000000 0.000000 -1.000000
vn 0.000000 0.000000 -1.000000
vn 0.000000 0.000000 -1.000000
vn 0.000000 0.000000 -1.000000
vn -0.000000 0.000000 1.000000
vn -0.000000 0.000000 1.000000
vn -0.000000 0.000000 1.000000
vn -0.000000 0.000000 1.000000
vn 1.000000 0.000000 0.000000
vn 1.000000 0.000000 0.000000
vn 1.000000 0.000000 0.000000
vn 1.000000 0.000000 0.000000
vn -1.000000 -0.000000 -0.000000
vn -1.000000 -0.000000 -0.000000
vn -1.000000 -0.000000 -0.000000
vn -1.000000 -0.000000 -0.000000
vn 1.000000 0.000000 0.000000
vn 1.000000 0.000000 0.000000
vn 1.000000 0.000000 0.000000
vn 1.000000 0.000000 0.000000
vn 1.000000 0.000000 0.000000
vn 1.000000 0.000000 0.000000
vn 1.000000 0.000000 0.000000
vn 1.000000 0.000000 0.000000
vn 0.000000 -1.000000 0.000000
vn 0.000000 -1.000000 0.000000
vn 0.000000 -1.000000 0.000000
vn 0.000000 -1.000000 0.000000
vn 0.000000 -1.000000 0.000000
vn 0.000000 -1.000000 0.000000
vn 0.000000 -1.000000 0.000000
vn 0.000000 -1.000000 0.000000
vn 1.000000 0.000000 0.000000
vn 1.000000 0.000000 0.000000
vn 1.000000 0.000000 0.000000
vn 1.000000 0.000000 0.000000
vn -0.000000 0.000000 1.000000
vn -0.000000 0.000000 1.000000
vn -0.000000 0.000000 1.000000
vn -0.000000 0.000000 1.000000
vn 1.000000 0.000000 0.000000
vn 1.000000 0.000000 0.000000
vn 1.000000 0.000000 0.000000
vn 1.000000 0.000000 0.000000
vn 0.000000 0.000000 -1.000000
vn 0.000000 0.000000 -1.000000
vn 0.000000 0.000000 -1.000000
vn 0.000000 0.000000 -1.000000
vn 1.000000 0.000000 0.000000
vn 1.000000 0.000000 0.000000
vn 1.000000 0.000000 0.000000
vn 1.000000 0.000000 0.000000
vn -1.000000 -0.000000 -0.000000
vn -1.000000 -0.000000 -0.000000
vn -1.000000 -0.000000 -0.000000
vn -1.000000 -0.000000 -0.000000
s off
g polySurface16 towel_Mesh
usemtl lambert20SG
f 7//1 4//2 12//3 15//4
f 9//5 1//6 17//7 21//8
f 6//9 7//10 15//11 14//12
f 4//13 1//14 9//15 12//16
f 12//17 11//18 16//19 15//20
f 14//21 15//22 16//23 13//24
f 10//25 11//26 12//27 9//28
f 8//29 5//30 13//31 16//32
f 6//33 14//34 24//35 20//36
f 3//37 8//38 16//39 11//40
f 2//41 3//42 11//43 10//44
f 19//45 20//46 24//47 23//48
f 17//49 18//50 22//51 21//52
f 13//53 5//54 19//55 23//56
f 10//57 9//58 21//59 22//60
f 2//61 10//62 22//63 18//64
f 14//65 13//66 23//67 24//68
f 29//69 30//70 31//71 32//72
f 27//73 28//74 26//75 25//76
g default
v 0.414746 0.009730 -0.263590
v 0.414746 0.119239 -0.263590
v 0.463959 0.009730 -0.263590
v 0.463959 0.119239 -0.263590
v 0.414746 0.009730 0.070264
v 0.414746 0.119239 0.070264
v 0.463959 0.009730 0.070264
v 0.463959 0.119239 0.070264
vn 0.000000 0.000000 -1.000000
vn 0.000000 0.000000 -1.000000
vn 0.000000 0.000000 -1.000000
vn 0.000000 0.000000 -1.000000
vn 1.000000 0.000000 0.000000
vn 1.000000 0.000000 0.000000
vn 1.000000 0.000000 0.000000
vn 1.000000 0.000000 0.000000
vn -0.000000 0.000000 1.000000
vn -0.000000 0.000000 1.000000
vn -0.000000 0.000000 1.000000
vn -0.000000 0.000000 1.000000
vn -1.000000 -0.000000 -0.000000
vn -1.000000 -0.000000 -0.000000
vn -1.000000 -0.000000 -0.000000
vn -1.000000 -0.000000 -0.000000
vn 0.000000 -1.000000 0.000000
vn 0.000000 -1.000000 0.000000
vn 0.000000 -1.000000 0.000000
vn 0.000000 -1.000000 0.000000
vn 0.000000 1.000000 0.000000
vn 0.000000 1.000000 0.000000
vn 0.000000 1.000000 0.000000
vn 0.000000 1.000000 0.000000
s off
g towel_Mesh polySurface13
usemtl lambert19SG
f 33//77 34//78 36//79 35//80
f 35//81 36//82 40//83 39//84
f 39//85 40//86 38//87 37//88
f 37//89 38//90 34//91 33//92
f 35//93 39//94 37//95 33//96
f 40//97 36//98 34//99 38//100
g default
v 0.414746 0.045347 0.023054
v 0.414746 0.083623 0.023054
v 0.414746 0.045347 0.061330
v 0.414746 0.083623 0.061330
v -0.137941 0.028842 0.061331
v 0.139047 0.028842 0.061330
v 0.139047 0.083623 0.061330
v -0.137941 0.083623 0.061331
v 0.139047 0.028842 0.023054
v -0.137941 0.028842 0.023055
v -0.137941 0.083623 0.023055
v 0.139047 0.083623 0.023054
v -0.416220 0.083623 0.061331
v -0.416220 0.045347 0.061331
v -0.416220 0.083623 0.023055
v -0.416220 0.045347 0.023055
vn -0.000000 0.000000 1.000000
vn -0.000000 0.000000 1.000000
vn -0.000000 0.000000 1.000000
vn -0.000000 0.000000 1.000000
vn 0.000000 0.000000 -1.000000
vn 0.000000 0.000000 -1.000000
vn 0.000000 0.000000 -1.000000
vn 0.000000 0.000000 -1.000000
vn -0.059203 -0.998246 -0.000000
vn -0.059203 -0.998246 -0.000000
vn -0.059203 -0.998246 -0.000000
vn -0.059203 -0.998246 -0.000000
vn 0.000000 1.000000 0.000000
vn 0.000000 1.000000 0.000000
vn 0.000000 1.000000 0.000000
vn 0.000000 1.000000 0.000000
vn 0.000000 1.000000 0.000000
vn 0.000000 1.000000 0.000000
vn 0.000000 1.000000 0.000000
vn 0.000000 1.000000 0.000000
vn 0.059801 -0.998210 0.000000
vn 0.059801 -0.998210 0.000000
vn 0.059801 -0.998210 0.000000
vn 0.059801 -0.998210 0.000000
vn 0.000000 0.000000 -1.000000
vn 0.000000 0.000000 -1.000000
vn 0.000000 0.000000 -1.000000
vn 0.000000 0.000000 -1.000000
vn -0.000000 0.000000 1.000000
vn -0.000000 0.000000 1.000000
vn -0.000000 0.000000 1.000000
vn -0.000000 0.000000 1.000000
vn -1.000000 -0.000000 -0.000000
vn -1.000000 -0.000000 -0.000000
vn -1.000000 -0.000000 -0.000000
vn -1.000000 -0.000000 -0.000000
vn 1.000000 0.000000 0.000000
vn 1.000000 0.000000 0.000000
vn 1.000000 0.000000 0.000000
vn 1.000000 0.000000 0.000000
vn 0.000000 1.000000 0.000000
vn 0.000000 1.000000 0.000000
vn 0.000000 1.000000 0.000000
vn 0.000000 1.000000 0.000000
vn 0.000000 0.000000 -1.000000
vn 0.000000 0.000000 -1.000000
vn 0.000000 0.000000 -1.000000
vn 0.000000 0.000000 -1.000000
vn -0.000000 0.000000 1.000000
vn -0.000000 0.000000 1.000000
vn -0.000000 0.000000 1.000000
vn -0.000000 0.000000 1.000000
vn 0.000000 -1.000000 0.000000
vn 0.000000 -1.000000 0.000000
vn 0.000000 -1.000000 0.000000
vn 0.000000 -1.000000 0.000000
s off
g towel_Mesh polySurface15
usemtl lambert19SG
f 45//101 48//102 53//103 54//104
f 49//105 52//106 42//107 41//108
f 45//109 54//110 56//111 50//112
f 47//113 44//114 42//115 52//116
f 53//117 48//118 51//119 55//120
f 43//121 46//122 49//123 41//124
f 56//125 55//126 51//127 50//128
f 43//129 44//130 47//131 46//132
f 51//133 50//134 45//135 48//136
f 52//137 47//138 46//139 49//140
f 47//141 52//142 51//143 48//144
f 50//145 51//146 52//147 49//148
f 46//149 47//150 48//151 45//152
f 45//153 50//154 49//155 46//156
g default
v -0.465433 0.009730 -0.263589
v -0.465433 0.119239 -0.263589
v -0.416220 0.009730 -0.263589
v -0.416220 0.119239 -0.263589
v -0.465433 0.009730 0.070264
v -0.465433 0.119239 0.070264
v -0.416220 0.009730 0.070264
v -0.416220 0.119239 0.070264
vn 0.000000 0.000000 -1.000000
vn 0.000000 0.000000 -1.000000
vn 0.000000 0.000000 -1.000000
vn 0.000000 0.000000 -1.000000
vn 1.000000 0.000000 0.000000
vn 1.000000 0.000000 0.000000
vn 1.000000 0.000000 0.000000
vn 1.000000 0.000000 0.000000
vn -0.000000 0.000000 1.000000
vn -0.000000 0.000000 1.000000
vn -0.000000 0.000000 1.000000
vn -0.000000 0.000000 1.000000
vn -1.000000 -0.000000 -0.000000
vn -1.000000 -0.000000 -0.000000
vn -1.000000 -0.000000 -0.000000
vn -1.000000 -0.000000 -0.000000
vn 0.000000 -1.000000 0.000000
vn 0.000000 -1.000000 0.000000
vn 0.000000 -1.000000 0.000000
vn 0.000000 -1.000000 0.000000
vn 0.000000 1.000000 0.000000
vn 0.000000 1.000000 0.000000
vn 0.000000 1.000000 0.000000
vn 0.000000 1.000000 0.000000
s off
g towel_Mesh polySurface14
usemtl lambert19SG
f 57//157 58//158 60//159 59//160
f 59//161 60//162 64//163 63//164
f 63//165 64//166 62//167 61//168
f 61//169 62//170 58//171 57//172
f 59//173 63//174 61//175 57//176
f 64//177 60//178 58//179 62//180
