# This file uses centimeters as units for non-parametric coordinates.

mtllib tapete.mtl
g default
v -1.355807 -0.009314 0.791955
v -1.355807 0.009314 0.791955
v -1.355807 -0.009314 -0.791955
v -1.355807 0.009314 -0.791955
v 1.355807 -0.009314 0.791955
v 1.355807 0.009314 0.791955
v 1.355807 -0.009314 -0.791955
v 1.355807 0.009314 -0.791955
v -1.355807 0.000000 0.791955
v -1.355807 0.000000 -0.791955
v 1.355807 0.000000 -0.791955
v 1.355807 0.000000 0.791955
vn 0.000000 -1.000000 0.000000
vn 0.000000 -1.000000 0.000000
vn 0.000000 -1.000000 0.000000
vn 0.000000 -1.000000 0.000000
vn 0.000000 0.000000 1.000000
vn 0.000000 0.000000 1.000000
vn 0.000000 0.000000 1.000000
vn 0.000000 0.000000 1.000000
vn 1.000000 0.000000 0.000000
vn 1.000000 0.000000 0.000000
vn 1.000000 0.000000 0.000000
vn 1.000000 0.000000 0.000000
vn 0.000000 0.000000 -1.000000
vn 0.000000 0.000000 -1.000000
vn 0.000000 0.000000 -1.000000
vn 0.000000 0.000000 -1.000000
vn -1.000000 0.000000 0.000000
vn -1.000000 0.000000 0.000000
vn -1.000000 0.000000 0.000000
vn -1.000000 0.000000 0.000000
vn -1.000000 0.000000 0.000000
vn -1.000000 0.000000 0.000000
vn -1.000000 0.000000 0.000000
vn -1.000000 0.000000 0.000000
vn 0.000000 0.000000 -1.000000
vn 0.000000 0.000000 -1.000000
vn 0.000000 0.000000 -1.000000
vn 0.000000 0.000000 -1.000000
vn 1.000000 0.000000 0.000000
vn 1.000000 0.000000 0.000000
vn 1.000000 0.000000 0.000000
vn 1.000000 0.000000 0.000000
vn 0.000000 0.000000 1.000000
vn 0.000000 0.000000 1.000000
vn 0.000000 0.000000 1.000000
vn 0.000000 0.000000 1.000000
vn 0.000000 1.000000 0.000000
vn 0.000000 1.000000 0.000000
vn 0.000000 1.000000 0.000000
vn 0.000000 1.000000 0.000000
s off
g carpet_Mesh
usemtl m_yellow
f 3//1 7//2 5//3 1//4
f 5//5 12//6 9//7 1//8
f 7//9 11//10 12//11 5//12
f 3//13 10//14 11//15 7//16
f 1//17 9//18 10//19 3//20
usemtl m_blue
f 9//21 2//22 4//23 10//24
f 10//25 4//26 8//27 11//28
f 11//29 8//30 6//31 12//32
f 12//33 6//34 2//35 9//36
f 8//37 4//38 2//39 6//40
