# This file uses centimeters as units for non-parametric coordinates.

mtllib banco.mtl
g default
v 0.158828 0.002368 0.274237
v 0.083239 0.681803 0.115767
v 0.159613 -0.005664 0.241364
v 0.084447 0.669462 0.065262
v 0.192517 0.005664 0.274237
v 0.134997 0.686866 0.115767
v 0.193302 -0.002369 0.241364
v 0.136204 0.674526 0.065262
v -0.193303 0.002417 -0.012764
v -0.034832 0.685983 -0.021841
v -0.160429 -0.005654 -0.012764
v 0.015673 0.673584 -0.021841
v -0.193303 0.002417 0.021086
v -0.034832 0.685983 0.030163
v -0.160429 -0.005654 0.021086
v 0.015673 0.673584 0.030163
v 0.192516 0.005664 -0.274237
v 0.134997 0.686866 -0.115767
v 0.193302 -0.002368 -0.241364
v 0.136204 0.674526 -0.065262
v 0.158828 0.002369 -0.274237
v 0.083239 0.681803 -0.115767
v 0.159613 -0.005664 -0.241364
v 0.084447 0.669463 -0.065262
v 0.053762 0.667961 -0.264314
v 0.053762 0.721271 -0.264314
v 0.283866 0.667961 -0.131464
v 0.283866 0.721271 -0.131464
v 0.283866 0.667961 0.134238
v 0.283866 0.721271 0.134238
v 0.053762 0.667961 0.267089
v 0.053762 0.721271 0.267089
v -0.176342 0.667961 0.134237
v -0.176342 0.721271 0.134237
v -0.176342 0.667961 -0.131464
v -0.176342 0.721271 -0.131464
vn -0.993937 -0.109904 0.003100
vn -0.993937 -0.109904 0.003100
vn -0.993937 -0.109904 0.003100
vn -0.993937 -0.109904 0.003100
vn 0.024400 -0.249798 -0.967991
vn 0.024400 -0.249798 -0.967991
vn 0.024400 -0.249798 -0.967991
vn 0.024400 -0.249798 -0.967991
vn 0.996385 0.084899 0.003100
vn 0.996385 0.084899 0.003100
vn 0.996385 0.084899 0.003100
vn 0.996385 0.084899 0.003100
vn -0.021999 0.224790 0.974159
vn -0.021999 0.224790 0.974159
vn -0.021999 0.224790 0.974159
vn -0.021999 0.224790 0.974159
vn 0.094604 -0.966545 0.238411
vn 0.094604 -0.966545 0.238411
vn 0.094604 -0.966545 0.238411
vn 0.094604 -0.966545 0.238411
vn -0.094604 0.966545 -0.238411
vn -0.094604 0.966545 -0.238411
vn -0.094604 0.966545 -0.238411
vn -0.094604 0.966545 -0.238411
vn -0.003100 -0.012600 -0.999916
vn -0.003100 -0.012600 -0.999916
vn -0.003100 -0.012600 -0.999916
vn -0.003100 -0.012600 -0.999916
vn 0.967988 -0.250997 0.000000
vn 0.967988 -0.250997 0.000000
vn 0.967988 -0.250997 0.000000
vn 0.967988 -0.250997 0.000000
vn -0.003100 -0.012600 0.999916
vn -0.003100 -0.012600 0.999916
vn -0.003100 -0.012600 0.999916
vn -0.003100 -0.012600 0.999916
vn -0.974175 0.225794 0.000000
vn -0.974175 0.225794 0.000000
vn -0.974175 0.225794 0.000000
vn -0.974175 0.225794 0.000000
vn -0.238392 -0.971169 0.000000
vn -0.238392 -0.971169 0.000000
vn -0.238392 -0.971169 0.000000
vn -0.238392 -0.971169 0.000000
vn 0.238392 0.971169 0.000000
vn 0.238392 0.971169 0.000000
vn 0.238392 0.971169 0.000000
vn 0.238392 0.971169 0.000000
vn 0.996385 0.084899 -0.003100
vn 0.996385 0.084899 -0.003100
vn 0.996385 0.084899 -0.003100
vn 0.996385 0.084899 -0.003100
vn 0.024400 -0.249798 0.967991
vn 0.024400 -0.249798 0.967991
vn 0.024400 -0.249798 0.967991
vn 0.024400 -0.249798 0.967991
vn -0.993937 -0.109904 -0.003100
vn -0.993937 -0.109904 -0.003100
vn -0.993937 -0.109904 -0.003100
vn -0.993937 -0.109904 -0.003100
vn -0.021999 0.224790 -0.974159
vn -0.021999 0.224790 -0.974159
vn -0.021999 0.224790 -0.974159
vn -0.021999 0.224790 -0.974159
vn 0.094604 -0.966545 -0.238411
vn 0.094604 -0.966545 -0.238411
vn 0.094604 -0.966545 -0.238411
vn 0.094604 -0.966545 -0.238411
vn -0.094604 0.966545 0.238411
vn -0.094604 0.966545 0.238411
vn -0.094604 0.966545 0.238411
vn -0.094604 0.966545 0.238411
vn 0.500011 0.000000 -0.866019
vn 0.500011 0.000000 -0.866019
vn 0.500011 0.000000 -0.866019
vn 0.500011 0.000000 -0.866019
vn 1.000000 0.000000 0.000000
vn 1.000000 0.000000 0.000000
vn 1.000000 0.000000 0.000000
vn 1.000000 0.000000 0.000000
vn 0.500011 -0.000000 0.866019
vn 0.500011 -0.000000 0.866019
vn 0.500011 -0.000000 0.866019
vn 0.500011 -0.000000 0.866019
vn -0.500011 0.000000 0.866019
vn -0.500011 0.000000 0.866019
vn -0.500011 0.000000 0.866019
vn -0.500011 0.000000 0.866019
vn 0.000000 1.000000 0.000000
vn 0.000000 1.000000 0.000000
vn 0.000000 1.000000 0.000000
vn 0.000000 1.000000 0.000000
vn 0.000000 1.000000 0.000000
vn 0.000000 1.000000 0.000000
vn -1.000000 0.000000 0.000000
vn -1.000000 0.000000 0.000000
vn -1.000000 0.000000 0.000000
vn -1.000000 0.000000 0.000000
vn -0.500011 0.000000 -0.866019
vn -0.500011 0.000000 -0.866019
vn -0.500011 0.000000 -0.866019
vn -0.500011 0.000000 -0.866019
vn 0.000000 -1.000000 0.000000
vn 0.000000 -1.000000 0.000000
vn 0.000000 -1.000000 0.000000
vn 0.000000 -1.000000 0.000000
vn 0.000000 -1.000000 0.000000
vn 0.000000 -1.000000 0.000000
s off
g chair_Mesh
usemtl lambert8SG
f 1//1 2//2 4//3 3//4
f 3//5 4//6 8//7 7//8
f 7//9 8//10 6//11 5//12
f 5//13 6//14 2//15 1//16
f 3//17 7//18 5//19 1//20
f 8//21 4//22 2//23 6//24
f 9//25 10//26 12//27 11//28
f 11//29 12//30 16//31 15//32
f 15//33 16//34 14//35 13//36
f 13//37 14//38 10//39 9//40
f 11//41 15//42 13//43 9//44
f 16//45 12//46 10//47 14//48
f 17//49 18//50 20//51 19//52
f 19//53 20//54 24//55 23//56
f 23//57 24//58 22//59 21//60
f 21//61 22//62 18//63 17//64
f 19//65 23//66 21//67 17//68
f 24//69 20//70 18//71 22//72
f 25//73 26//74 28//75 27//76
f 27//77 28//78 30//79 29//80
f 29//81 30//82 32//83 31//84
f 31//85 32//86 34//87 33//88
f 28//89 26//90 36//91 34//92 32//93 30//94
f 33//95 34//96 36//97 35//98
f 35//99 36//100 26//101 25//102
f 25//103 27//104 29//105 31//106 33//107 35//108
