# This file uses centimeters as units for non-parametric coordinates.

mtllib espejo.mtl
g default
v 0.535867 0.000000 -0.010676
v 0.535867 0.716457 -0.010676
v 0.517260 0.017438 0.010676
v 0.517260 0.699019 0.010676
v -0.535867 0.000000 -0.010676
v -0.535867 0.716457 -0.010676
v -0.517260 0.017438 0.010676
v -0.517260 0.699019 0.010676
v 0.535867 0.716457 0.010676
v 0.535867 0.000000 0.010676
v -0.535867 0.000000 0.010676
v -0.535867 0.716457 0.010676
v 0.517260 0.699019 -0.008421
v 0.517260 0.017438 -0.008421
v -0.517260 0.017438 -0.008421
v -0.517260 0.699019 -0.008421
vn 1.000000 0.000000 0.000000
vn 1.000000 0.000000 0.000000
vn 1.000000 0.000000 0.000000
vn 1.000000 0.000000 0.000000
vn 0.000000 -1.000000 0.000000
vn 0.000000 -1.000000 0.000000
vn 0.000000 -1.000000 0.000000
vn 0.000000 -1.000000 0.000000
vn -1.000000 0.000000 -0.000000
vn -1.000000 0.000000 -0.000000
vn -1.000000 0.000000 -0.000000
vn -1.000000 0.000000 -0.000000
vn 0.000000 0.000000 -1.000000
vn 0.000000 0.000000 -1.000000
vn 0.000000 0.000000 -1.000000
vn 0.000000 0.000000 -1.000000
vn 0.000000 -1.000000 0.000000
vn 0.000000 -1.000000 0.000000
vn 0.000000 -1.000000 0.000000
vn 0.000000 -1.000000 0.000000
vn 0.000000 1.000000 -0.000000
vn 0.000000 1.000000 -0.000000
vn 0.000000 1.000000 -0.000000
vn 0.000000 1.000000 -0.000000
vn -0.000000 0.000000 1.000000
vn -0.000000 0.000000 1.000000
vn -0.000000 0.000000 1.000000
vn -0.000000 0.000000 1.000000
vn -0.000000 0.000000 1.000000
vn -0.000000 0.000000 1.000000
vn -0.000000 0.000000 1.000000
vn -0.000000 0.000000 1.000000
vn -0.000000 0.000000 1.000000
vn -0.000000 0.000000 1.000000
vn -0.000000 0.000000 1.000000
vn -0.000000 0.000000 1.000000
vn -0.000000 0.000000 1.000000
vn -0.000000 0.000000 1.000000
vn -0.000000 0.000000 1.000000
vn -0.000000 0.000000 1.000000
vn -0.000000 0.000000 1.000000
vn -0.000000 0.000000 1.000000
vn -0.000000 0.000000 1.000000
vn -0.000000 0.000000 1.000000
vn 1.000000 0.000000 0.000000
vn 1.000000 0.000000 0.000000
vn 1.000000 0.000000 0.000000
vn 1.000000 0.000000 0.000000
vn -1.000000 0.000000 -0.000000
vn -1.000000 0.000000 -0.000000
vn -1.000000 0.000000 -0.000000
vn -1.000000 0.000000 -0.000000
vn 0.000000 1.000000 -0.000000
vn 0.000000 1.000000 -0.000000
vn 0.000000 1.000000 -0.000000
vn 0.000000 1.000000 -0.000000
s off
g mirror_Mesh
usemtl lambert18SG
f 1//1 2//2 9//3 10//4
f 4//5 8//6 16//7 13//8
f 11//9 12//10 6//11 5//12
f 5//13 6//14 2//15 1//16
f 10//17 11//18 5//19 1//20
f 12//21 9//22 2//23 6//24
f 4//25 3//26 10//27 9//28
f 3//29 7//30 11//31 10//32
f 8//33 4//34 9//35 12//36
f 7//37 8//38 12//39 11//40
f 14//41 13//42 16//43 15//44
f 8//45 7//46 15//47 16//48
f 3//49 4//50 13//51 14//52
f 7//53 3//54 14//55 15//56
