# This file uses centimeters as units for non-parametric coordinates.

mtllib lavabo.mtl
g default
v 0.505719 0.000000 -0.256548
v 0.505719 0.134264 -0.256548
v 0.505719 0.000000 0.353007
v 0.505719 0.134264 0.353007
v -0.505719 0.000000 -0.256548
v -0.484653 0.134264 -0.231000
v -0.505719 0.000000 0.353007
v -0.484653 0.134264 0.327459
v 0.240001 0.000000 0.353007
v 0.208516 0.134264 0.327459
v 0.240001 0.000000 -0.256548
v 0.208516 0.134264 -0.231000
v 0.240001 0.134264 0.353007
v -0.516138 0.134264 0.353007
v -0.516138 0.134264 -0.256548
v 0.240001 0.134264 -0.256548
v 0.013637 0.088757 0.168057
v -0.279355 0.088757 0.168057
v -0.279355 0.088757 -0.071598
v 0.013637 0.088757 -0.071598
v 0.505719 0.000000 -0.353008
v 0.505719 0.134264 -0.353008
v -0.516138 0.134264 -0.353008
v -0.505719 0.000000 -0.353008
v 0.240001 0.000000 -0.353008
v 0.240001 0.134264 -0.353008
vn 1.000000 0.000000 0.000000
vn 1.000000 0.000000 0.000000
vn 1.000000 0.000000 0.000000
vn 1.000000 0.000000 0.000000
vn -0.000000 0.000000 1.000000
vn -0.000000 0.000000 1.000000
vn -0.000000 0.000000 1.000000
vn -0.000000 0.000000 1.000000
vn -0.997000 -0.077400 -0.000000
vn -0.997000 -0.077400 -0.000000
vn -0.997000 -0.077400 -0.000000
vn -0.997000 -0.077400 -0.000000
vn -0.997000 -0.077400 -0.000000
vn -0.997000 -0.077400 -0.000000
vn -0.997000 -0.077400 -0.000000
vn -0.997000 -0.077400 -0.000000
vn 0.000000 -1.000000 0.000000
vn 0.000000 -1.000000 0.000000
vn 0.000000 -1.000000 0.000000
vn 0.000000 -1.000000 0.000000
vn 0.000000 1.000000 -0.000000
vn 0.000000 1.000000 -0.000000
vn 0.000000 1.000000 -0.000000
vn 0.000000 1.000000 -0.000000
vn -0.227400 0.973801 -0.000000
vn -0.227400 0.973801 -0.000000
vn -0.227400 0.973801 -0.000000
vn -0.227400 0.973801 -0.000000
vn 0.000000 -1.000000 0.000000
vn 0.000000 -1.000000 0.000000
vn 0.000000 -1.000000 0.000000
vn 0.000000 -1.000000 0.000000
vn 1.000000 0.000000 0.000000
vn 1.000000 0.000000 0.000000
vn 1.000000 0.000000 0.000000
vn 1.000000 0.000000 0.000000
vn -0.000000 0.000000 1.000000
vn -0.000000 0.000000 1.000000
vn -0.000000 0.000000 1.000000
vn -0.000000 0.000000 1.000000
vn 0.000000 1.000000 -0.000000
vn 0.000000 1.000000 -0.000000
vn 0.000000 1.000000 -0.000000
vn 0.000000 1.000000 -0.000000
vn 0.000000 1.000000 -0.000000
vn 0.000000 1.000000 -0.000000
vn 0.000000 1.000000 -0.000000
vn 0.000000 1.000000 -0.000000
vn 0.000000 1.000000 -0.000000
vn 0.000000 1.000000 -0.000000
vn 0.000000 1.000000 -0.000000
vn 0.000000 1.000000 -0.000000
vn 0.000000 1.000000 -0.000000
vn 0.000000 1.000000 -0.000000
vn 0.000000 1.000000 -0.000000
vn 0.000000 1.000000 -0.000000
vn 0.000000 1.000000 -0.000000
vn 0.000000 1.000000 -0.000000
vn 0.000000 1.000000 -0.000000
vn 0.000000 1.000000 -0.000000
vn 0.000000 0.961588 -0.274497
vn 0.000000 0.961588 -0.274497
vn 0.000000 0.961588 -0.274497
vn 0.000000 0.961588 -0.274497
vn 0.216401 0.976305 0.000000
vn 0.216401 0.976305 0.000000
vn 0.216401 0.976305 0.000000
vn 0.216401 0.976305 0.000000
vn -0.000000 0.961588 0.274497
vn -0.000000 0.961588 0.274497
vn -0.000000 0.961588 0.274497
vn -0.000000 0.961588 0.274497
vn 0.000000 0.000000 -1.000000
vn 0.000000 0.000000 -1.000000
vn 0.000000 0.000000 -1.000000
vn 0.000000 0.000000 -1.000000
vn 0.000000 0.000000 -1.000000
vn 0.000000 0.000000 -1.000000
vn 0.000000 0.000000 -1.000000
vn 0.000000 0.000000 -1.000000
vn 0.000000 -1.000000 0.000000
vn 0.000000 -1.000000 0.000000
vn 0.000000 -1.000000 0.000000
vn 0.000000 -1.000000 0.000000
vn 0.000000 -1.000000 0.000000
vn 0.000000 -1.000000 0.000000
vn 0.000000 -1.000000 0.000000
vn 0.000000 -1.000000 0.000000
vn 0.000000 1.000000 -0.000000
vn 0.000000 1.000000 -0.000000
vn 0.000000 1.000000 -0.000000
vn 0.000000 1.000000 -0.000000
vn 0.000000 1.000000 -0.000000
vn 0.000000 1.000000 -0.000000
vn 0.000000 1.000000 -0.000000
vn 0.000000 1.000000 -0.000000
s off
g sink_Mesh1
usemtl lambert14SG
f 1//1 2//2 4//3 3//4
f 9//5 13//6 14//7 7//8
f 7//9 14//10 15//11 5//12
f 5//13 15//14 23//15 24//16
f 9//17 7//18 5//19 11//20
f 13//21 4//22 2//23 16//24
f 10//25 12//26 20//27 17//28
f 3//29 9//30 11//31 1//32
f 2//33 1//34 21//35 22//36
f 3//37 4//38 13//39 9//40
f 10//41 8//42 14//43 13//44
f 8//45 6//46 15//47 14//48
f 6//49 12//50 16//51 15//52
f 12//53 10//54 13//55 16//56
f 18//57 17//58 20//59 19//60
f 8//61 10//62 17//63 18//64
f 6//65 8//66 18//67 19//68
f 12//69 6//70 19//71 20//72
f 25//73 26//74 22//75 21//76
f 24//77 23//78 26//79 25//80
f 1//81 11//82 25//83 21//84
f 11//85 5//86 24//87 25//88
f 15//89 16//90 26//91 23//92
f 16//93 2//94 22//95 26//96
