# This file uses centimeters as units for non-parametric coordinates.

mtllib llaveb.mtl
g default
v -0.144926 -0.082107 0.016705
v -0.144926 -0.066301 0.016705
v -0.153047 -0.082107 0.010655
v -0.153047 -0.066301 0.010655
v -0.153047 -0.082107 -0.001445
v -0.153047 -0.066301 -0.001445
v -0.144926 -0.082107 -0.007495
v -0.144926 -0.066301 -0.007495
v -0.136804 -0.082107 -0.001445
v -0.136804 -0.066301 -0.001445
v -0.136804 -0.082107 0.010655
v -0.136804 -0.066301 0.010655
v -0.015453 0.015761 0.044139
v -0.015453 0.061548 0.044139
v -0.035772 0.015761 0.029001
v -0.035772 0.061548 0.029001
v -0.035772 0.015761 -0.001274
v -0.035772 0.061548 -0.001274
v -0.015453 0.015761 -0.016411
v -0.015453 0.061548 -0.016411
v 0.004867 0.015761 -0.001274
v 0.004867 0.061548 -0.001274
v 0.004867 0.015761 0.029001
v 0.004867 0.061548 0.029001
v 0.136849 -0.019977 -0.125477
v 0.076156 -0.019977 -0.125477
v 0.136849 -0.129143 -0.168643
v 0.076156 -0.129143 -0.168643
v 0.136849 -0.129143 -0.254974
v 0.076156 -0.129143 -0.254974
v 0.136849 -0.019977 -0.298139
v 0.076156 -0.019977 -0.298139
v 0.136849 0.089188 -0.254974
v 0.076156 0.089188 -0.254974
v 0.136849 0.089188 -0.168643
v 0.076156 0.089188 -0.168643
v -0.088724 0.071751 0.024990
v -0.090120 0.094261 0.024990
v -0.088724 0.071751 0.005251
v -0.090120 0.094261 0.005251
v -0.026589 0.084210 0.031837
v -0.027984 0.106720 0.031837
v -0.026589 0.084210 -0.001597
v -0.027984 0.106720 -0.001597
v -0.015453 0.061548 0.048057
v -0.015453 0.113262 0.048057
v -0.038403 0.061548 0.030960
v -0.038403 0.113262 0.030960
v -0.038403 0.061548 -0.003233
v -0.038403 0.113262 -0.003233
v -0.015453 0.061548 -0.020330
v -0.015453 0.113262 -0.020330
v 0.007497 0.061548 -0.003233
v 0.007497 0.113262 -0.003233
v 0.007497 0.061548 0.030960
v 0.007497 0.113262 0.030960
v 0.136849 -0.019977 0.105687
v 0.076156 -0.019977 0.105687
v 0.136849 0.089189 0.148852
v 0.076156 0.089189 0.148852
v 0.136849 0.089189 0.235183
v 0.076156 0.089189 0.235183
v 0.136849 -0.019977 0.278349
v 0.076156 -0.019977 0.278349
v 0.136849 -0.129142 0.235183
v 0.076156 -0.129142 0.235183
v 0.136849 -0.129142 0.148852
v 0.076156 -0.129142 0.148852
v -0.030539 0.015761 0.167542
v -0.030539 -0.055715 0.167542
v 0.007399 0.015761 0.167542
v 0.007399 -0.055715 0.167542
v -0.030539 0.015761 -0.009895
v -0.030539 -0.055715 -0.009895
v 0.007399 0.015761 -0.009895
v 0.007399 -0.055715 -0.009895
v 0.144913 0.015761 0.216494
v 0.144913 -0.055715 0.216494
v 0.144913 0.015761 0.167542
v 0.144913 -0.055715 0.167542
v -0.030539 0.015761 0.216494
v -0.030539 -0.055715 0.216494
v -0.030539 0.015761 0.167542
v -0.030539 -0.055715 0.167542
v -0.156602 -0.068277 0.030122
v -0.160053 -0.013338 0.030122
v -0.156602 -0.068277 -0.018830
v -0.160053 -0.013338 -0.018830
v -0.017234 -0.041021 0.071944
v -0.020684 0.013919 0.071944
v -0.017234 -0.041021 -0.060653
v -0.020685 0.013919 -0.060653
v -0.030539 -0.055715 -0.187331
v -0.030539 0.015761 -0.187331
v 0.007399 -0.055715 -0.187331
v 0.007399 0.015761 -0.187331
v -0.030539 -0.055715 -0.009895
v -0.030539 0.015761 -0.009895
v 0.007399 -0.055715 -0.009895
v 0.007399 0.015761 -0.009895
v 0.144913 -0.055715 -0.236284
v 0.144913 0.015761 -0.236284
v 0.144913 -0.055715 -0.187332
v 0.144913 0.015761 -0.187332
v -0.030539 -0.055715 -0.236284
v -0.030539 0.015761 -0.236284
v -0.030539 -0.055715 -0.187332
v -0.030539 0.015761 -0.187332
vn -0.597421 0.000000 0.801928
vn -0.597421 0.000000 0.801928
vn -0.597421 0.000000 0.801928
vn -0.597421 0.000000 0.801928
vn -1.000000 0.000000 -0.000000
vn -1.000000 0.000000 -0.000000
vn -1.000000 0.000000 -0.000000
vn -1.000000 0.000000 -0.000000
vn -0.597421 0.000000 -0.801928
vn -0.597421 0.000000 -0.801928
vn -0.597421 0.000000 -0.801928
vn -0.597421 0.000000 -0.801928
vn 0.597421 0.000000 -0.801928
vn 0.597421 0.000000 -0.801928
vn 0.597421 0.000000 -0.801928
vn 0.597421 0.000000 -0.801928
vn 0.000000 1.000000 0.000000
vn 0.000000 1.000000 0.000000
vn 0.000000 1.000000 0.000000
vn 0.000000 1.000000 0.000000
vn 0.000000 1.000000 0.000000
vn 0.000000 1.000000 0.000000
vn 1.000000 0.000000 0.000000
vn 1.000000 0.000000 0.000000
vn 1.000000 0.000000 0.000000
vn 1.000000 0.000000 0.000000
vn 0.597421 0.000000 0.801928
vn 0.597421 0.000000 0.801928
vn 0.597421 0.000000 0.801928
vn 0.597421 0.000000 0.801928
vn 0.000000 -1.000000 0.000000
vn 0.000000 -1.000000 0.000000
vn 0.000000 -1.000000 0.000000
vn 0.000000 -1.000000 0.000000
vn 0.000000 -1.000000 0.000000
vn 0.000000 -1.000000 0.000000
vn -0.597421 0.000000 0.801928
vn -0.597421 0.000000 0.801928
vn -0.597421 0.000000 0.801928
vn -0.597421 0.000000 0.801928
vn -1.000000 0.000000 -0.000000
vn -1.000000 0.000000 -0.000000
vn -1.000000 0.000000 -0.000000
vn -1.000000 0.000000 -0.000000
vn -0.597421 0.000000 -0.801928
vn -0.597421 0.000000 -0.801928
vn -0.597421 0.000000 -0.801928
vn -0.597421 0.000000 -0.801928
vn 0.597421 0.000000 -0.801928
vn 0.597421 0.000000 -0.801928
vn 0.597421 0.000000 -0.801928
vn 0.597421 0.000000 -0.801928
vn 0.000000 1.000000 0.000000
vn 0.000000 1.000000 0.000000
vn 0.000000 1.000000 0.000000
vn 0.000000 1.000000 0.000000
vn 0.000000 1.000000 0.000000
vn 0.000000 1.000000 0.000000
vn 1.000000 0.000000 0.000000
vn 1.000000 0.000000 0.000000
vn 1.000000 0.000000 0.000000
vn 1.000000 0.000000 0.000000
vn 0.597421 0.000000 0.801928
vn 0.597421 0.000000 0.801928
vn 0.597421 0.000000 0.801928
vn 0.597421 0.000000 0.801928
vn 0.000000 -1.000000 0.000000
vn 0.000000 -1.000000 0.000000
vn 0.000000 -1.000000 0.000000
vn 0.000000 -1.000000 0.000000
vn 0.000000 -1.000000 0.000000
vn 0.000000 -1.000000 0.000000
vn 0.000000 -0.367715 0.929938
vn 0.000000 -0.367715 0.929938
vn 0.000000 -0.367715 0.929938
vn 0.000000 -0.367715 0.929938
vn 0.000000 -1.000000 0.000000
vn 0.000000 -1.000000 0.000000
vn 0.000000 -1.000000 0.000000
vn 0.000000 -1.000000 0.000000
vn 0.000000 -0.367715 -0.929938
vn 0.000000 -0.367715 -0.929938
vn 0.000000 -0.367715 -0.929938
vn 0.000000 -0.367715 -0.929938
vn 0.000000 0.367715 -0.929938
vn 0.000000 0.367715 -0.929938
vn 0.000000 0.367715 -0.929938
vn 0.000000 0.367715 -0.929938
vn -1.000000 0.000000 -0.000000
vn -1.000000 0.000000 -0.000000
vn -1.000000 0.000000 -0.000000
vn -1.000000 0.000000 -0.000000
vn -1.000000 0.000000 -0.000000
vn -1.000000 0.000000 -0.000000
vn 0.000000 1.000000 0.000000
vn 0.000000 1.000000 0.000000
vn 0.000000 1.000000 0.000000
vn 0.000000 1.000000 0.000000
vn 0.000000 0.367715 0.929938
vn 0.000000 0.367715 0.929938
vn 0.000000 0.367715 0.929938
vn 0.000000 0.367715 0.929938
vn 1.000000 0.000000 0.000000
vn 1.000000 0.000000 0.000000
vn 1.000000 0.000000 0.000000
vn 1.000000 0.000000 0.000000
vn 1.000000 0.000000 0.000000
vn 1.000000 0.000000 0.000000
vn -0.998082 -0.061899 0.000000
vn -0.998082 -0.061899 0.000000
vn -0.998082 -0.061899 0.000000
vn -0.998082 -0.061899 0.000000
vn -0.108201 -0.006700 -0.994107
vn -0.108201 -0.006700 -0.994107
vn -0.108201 -0.006700 -0.994107
vn -0.108201 -0.006700 -0.994107
vn 0.998082 0.061899 0.000000
vn 0.998082 0.061899 0.000000
vn 0.998082 0.061899 0.000000
vn 0.998082 0.061899 0.000000
vn -0.108201 -0.006700 0.994107
vn -0.108201 -0.006700 0.994107
vn -0.108201 -0.006700 0.994107
vn -0.108201 -0.006700 0.994107
vn 0.196597 -0.980484 0.000000
vn 0.196597 -0.980484 0.000000
vn 0.196597 -0.980484 0.000000
vn 0.196597 -0.980484 0.000000
vn -0.196597 0.980484 -0.000000
vn -0.196597 0.980484 -0.000000
vn -0.196597 0.980484 -0.000000
vn -0.196597 0.980484 -0.000000
vn -0.597421 0.000000 0.801928
vn -0.597421 0.000000 0.801928
vn -0.597421 0.000000 0.801928
vn -0.597421 0.000000 0.801928
vn -1.000000 0.000000 -0.000000
vn -1.000000 0.000000 -0.000000
vn -1.000000 0.000000 -0.000000
vn -1.000000 0.000000 -0.000000
vn -0.597421 0.000000 -0.801928
vn -0.597421 0.000000 -0.801928
vn -0.597421 0.000000 -0.801928
vn -0.597421 0.000000 -0.801928
vn 0.597421 0.000000 -0.801928
vn 0.597421 0.000000 -0.801928
vn 0.597421 0.000000 -0.801928
vn 0.597421 0.000000 -0.801928
vn 0.000000 1.000000 0.000000
vn 0.000000 1.000000 0.000000
vn 0.000000 1.000000 0.000000
vn 0.000000 1.000000 0.000000
vn 0.000000 1.000000 0.000000
vn 0.000000 1.000000 0.000000
vn 1.000000 0.000000 0.000000
vn 1.000000 0.000000 0.000000
vn 1.000000 0.000000 0.000000
vn 1.000000 0.000000 0.000000
vn 0.597421 0.000000 0.801928
vn 0.597421 0.000000 0.801928
vn 0.597421 0.000000 0.801928
vn 0.597421 0.000000 0.801928
vn 0.000000 -1.000000 0.000000
vn 0.000000 -1.000000 0.000000
vn 0.000000 -1.000000 0.000000
vn 0.000000 -1.000000 0.000000
vn 0.000000 -1.000000 0.000000
vn 0.000000 -1.000000 0.000000
vn 0.000000 0.367715 -0.929938
vn 0.000000 0.367715 -0.929938
vn 0.000000 0.367715 -0.929938
vn 0.000000 0.367715 -0.929938
vn 0.000000 1.000000 0.000000
vn 0.000000 1.000000 0.000000
vn 0.000000 1.000000 0.000000
vn 0.000000 1.000000 0.000000
vn 0.000000 0.367715 0.929938
vn 0.000000 0.367715 0.929938
vn 0.000000 0.367715 0.929938
vn 0.000000 0.367715 0.929938
vn 0.000000 -0.367715 0.929938
vn 0.000000 -0.367715 0.929938
vn 0.000000 -0.367715 0.929938
vn 0.000000 -0.367715 0.929938
vn -1.000000 0.000000 -0.000000
vn -1.000000 0.000000 -0.000000
vn -1.000000 0.000000 -0.000000
vn -1.000000 0.000000 -0.000000
vn -1.000000 0.000000 -0.000000
vn -1.000000 0.000000 -0.000000
vn 0.000000 -1.000000 0.000000
vn 0.000000 -1.000000 0.000000
vn 0.000000 -1.000000 0.000000
vn 0.000000 -1.000000 0.000000
vn 0.000000 -0.367715 -0.929938
vn 0.000000 -0.367715 -0.929938
vn 0.000000 -0.367715 -0.929938
vn 0.000000 -0.367715 -0.929938
vn 1.000000 0.000000 0.000000
vn 1.000000 0.000000 0.000000
vn 1.000000 0.000000 0.000000
vn 1.000000 0.000000 0.000000
vn 1.000000 0.000000 0.000000
vn 1.000000 0.000000 0.000000
vn 0.000000 0.000000 1.000000
vn 0.000000 0.000000 1.000000
vn 0.000000 0.000000 1.000000
vn 0.000000 0.000000 1.000000
vn 1.000000 0.000000 0.000000
vn 1.000000 0.000000 0.000000
vn 1.000000 0.000000 0.000000
vn 1.000000 0.000000 0.000000
vn 0.000000 -0.000000 -1.000000
vn 0.000000 -0.000000 -1.000000
vn 0.000000 -0.000000 -1.000000
vn 0.000000 -0.000000 -1.000000
vn -1.000000 0.000000 -0.000000
vn -1.000000 0.000000 -0.000000
vn -1.000000 0.000000 -0.000000
vn -1.000000 0.000000 -0.000000
vn 0.000000 1.000000 0.000000
vn 0.000000 1.000000 0.000000
vn 0.000000 1.000000 0.000000
vn 0.000000 1.000000 0.000000
vn 0.000000 -1.000000 0.000000
vn 0.000000 -1.000000 0.000000
vn 0.000000 -1.000000 0.000000
vn 0.000000 -1.000000 0.000000
vn 1.000000 0.000000 0.000000
vn 1.000000 0.000000 0.000000
vn 1.000000 0.000000 0.000000
vn 1.000000 0.000000 0.000000
vn 0.000000 -0.000000 -1.000000
vn 0.000000 -0.000000 -1.000000
vn 0.000000 -0.000000 -1.000000
vn 0.000000 -0.000000 -1.000000
vn -1.000000 0.000000 -0.000000
vn -1.000000 0.000000 -0.000000
vn -1.000000 0.000000 -0.000000
vn -1.000000 0.000000 -0.000000
vn 0.000000 0.000000 1.000000
vn 0.000000 0.000000 1.000000
vn 0.000000 0.000000 1.000000
vn 0.000000 0.000000 1.000000
vn 0.000000 1.000000 0.000000
vn 0.000000 1.000000 0.000000
vn 0.000000 1.000000 0.000000
vn 0.000000 1.000000 0.000000
vn 0.000000 -1.000000 0.000000
vn 0.000000 -1.000000 0.000000
vn 0.000000 -1.000000 0.000000
vn 0.000000 -1.000000 0.000000
vn -0.998032 -0.062702 0.000000
vn -0.998032 -0.062702 0.000000
vn -0.998032 -0.062702 0.000000
vn -0.998032 -0.062702 0.000000
vn -0.284200 -0.017800 -0.958600
vn -0.284200 -0.017800 -0.958600
vn -0.284200 -0.017800 -0.958600
vn -0.284200 -0.017800 -0.958600
vn 0.998032 0.062702 0.000000
vn 0.998032 0.062702 0.000000
vn 0.998032 0.062702 0.000000
vn 0.998032 0.062702 0.000000
vn -0.284200 -0.017800 0.958600
vn -0.284200 -0.017800 0.958600
vn -0.284200 -0.017800 0.958600
vn -0.284200 -0.017800 0.958600
vn 0.191903 -0.981414 0.000000
vn 0.191903 -0.981414 0.000000
vn 0.191903 -0.981414 0.000000
vn 0.191903 -0.981414 0.000000
vn -0.191903 0.981414 0.000000
vn -0.191903 0.981414 0.000000
vn -0.191903 0.981414 0.000000
vn -0.191903 0.981414 0.000000
vn 0.000000 -0.000000 -1.000000
vn 0.000000 -0.000000 -1.000000
vn 0.000000 -0.000000 -1.000000
vn 0.000000 -0.000000 -1.000000
vn 1.000000 0.000000 0.000000
vn 1.000000 0.000000 0.000000
vn 1.000000 0.000000 0.000000
vn 1.000000 0.000000 0.000000
vn 0.000000 0.000000 1.000000
vn 0.000000 0.000000 1.000000
vn 0.000000 0.000000 1.000000
vn 0.000000 0.000000 1.000000
vn -1.000000 0.000000 -0.000000
vn -1.000000 0.000000 -0.000000
vn -1.000000 0.000000 -0.000000
vn -1.000000 0.000000 -0.000000
vn 0.000000 -1.000000 0.000000
vn 0.000000 -1.000000 0.000000
vn 0.000000 -1.000000 0.000000
vn 0.000000 -1.000000 0.000000
vn 0.000000 1.000000 0.000000
vn 0.000000 1.000000 0.000000
vn 0.000000 1.000000 0.000000
vn 0.000000 1.000000 0.000000
vn 1.000000 0.000000 0.000000
vn 1.000000 0.000000 0.000000
vn 1.000000 0.000000 0.000000
vn 1.000000 0.000000 0.000000
vn 0.000000 0.000000 1.000000
vn 0.000000 0.000000 1.000000
vn 0.000000 0.000000 1.000000
vn 0.000000 0.000000 1.000000
vn -1.000000 0.000000 -0.000000
vn -1.000000 0.000000 -0.000000
vn -1.000000 0.000000 -0.000000
vn -1.000000 0.000000 -0.000000
vn 0.000000 -0.000000 -1.000000
vn 0.000000 -0.000000 -1.000000
vn 0.000000 -0.000000 -1.000000
vn 0.000000 -0.000000 -1.000000
vn 0.000000 -1.000000 0.000000
vn 0.000000 -1.000000 0.000000
vn 0.000000 -1.000000 0.000000
vn 0.000000 -1.000000 0.000000
vn 0.000000 1.000000 0.000000
vn 0.000000 1.000000 0.000000
vn 0.000000 1.000000 0.000000
vn 0.000000 1.000000 0.000000
s off
g tap2_Mesh
usemtl lambert21SG
f 1//1 2//2 4//3 3//4
f 3//5 4//6 6//7 5//8
f 5//9 6//10 8//11 7//12
f 7//13 8//14 10//15 9//16
f 4//17 2//18 12//19 10//20 8//21 6//22
f 9//23 10//24 12//25 11//26
f 11//27 12//28 2//29 1//30
f 1//31 3//32 5//33 7//34 9//35 11//36
f 13//37 14//38 16//39 15//40
f 15//41 16//42 18//43 17//44
f 17//45 18//46 20//47 19//48
f 19//49 20//50 22//51 21//52
f 16//53 14//54 24//55 22//56 20//57 18//58
f 21//59 22//60 24//61 23//62
f 23//63 24//64 14//65 13//66
f 13//67 15//68 17//69 19//70 21//71 23//72
f 25//73 26//74 28//75 27//76
f 27//77 28//78 30//79 29//80
f 29//81 30//82 32//83 31//84
f 31//85 32//86 34//87 33//88
f 28//89 26//90 36//91 34//92 32//93 30//94
f 33//95 34//96 36//97 35//98
f 35//99 36//100 26//101 25//102
f 25//103 27//104 29//105 31//106 33//107 35//108
f 37//109 38//110 40//111 39//112
f 39//113 40//114 44//115 43//116
f 43//117 44//118 42//119 41//120
f 41//121 42//122 38//123 37//124
f 39//125 43//126 41//127 37//128
f 44//129 40//130 38//131 42//132
f 45//133 46//134 48//135 47//136
f 47//137 48//138 50//139 49//140
f 49//141 50//142 52//143 51//144
f 51//145 52//146 54//147 53//148
f 48//149 46//150 56//151 54//152 52//153 50//154
f 53//155 54//156 56//157 55//158
f 55//159 56//160 46//161 45//162
f 45//163 47//164 49//165 51//166 53//167 55//168
f 57//169 58//170 60//171 59//172
f 59//173 60//174 62//175 61//176
f 61//177 62//178 64//179 63//180
f 63//181 64//182 66//183 65//184
f 60//185 58//186 68//187 66//188 64//189 62//190
f 65//191 66//192 68//193 67//194
f 67//195 68//196 58//197 57//198
f 57//199 59//200 61//201 63//202 65//203 67//204
f 69//205 70//206 72//207 71//208
f 71//209 72//210 76//211 75//212
f 75//213 76//214 74//215 73//216
f 73//217 74//218 70//219 69//220
f 71//221 75//222 73//223 69//224
f 76//225 72//226 70//227 74//228
f 77//229 78//230 80//231 79//232
f 79//233 80//234 84//235 83//236
f 83//237 84//238 82//239 81//240
f 81//241 82//242 78//243 77//244
f 79//245 83//246 81//247 77//248
f 84//249 80//250 78//251 82//252
f 85//253 86//254 88//255 87//256
f 87//257 88//258 92//259 91//260
f 91//261 92//262 90//263 89//264
f 89//265 90//266 86//267 85//268
f 87//269 91//270 89//271 85//272
f 92//273 88//274 86//275 90//276
f 93//277 94//278 96//279 95//280
f 95//281 96//282 100//283 99//284
f 99//285 100//286 98//287 97//288
f 97//289 98//290 94//291 93//292
f 95//293 99//294 97//295 93//296
f 100//297 96//298 94//299 98//300
f 101//301 102//302 104//303 103//304
f 103//305 104//306 108//307 107//308
f 107//309 108//310 106//311 105//312
f 105//313 106//314 102//315 101//316
f 103//317 107//318 105//319 101//320
f 108//321 104//322 102//323 106//324
